<?xml version="1.0" encoding="UTF-8" standalone="no"?>
<!DOCTYPE svg PUBLIC "-//W3C//DTD SVG 1.1//EN" "http://www.w3.org/Graphics/SVG/1.1/DTD/svg11.dtd">

<svg width="265" height="265" viewBox="0 0 265 265" fill="none" xmlns="http://www.w3.org/2000/svg">
	<circle cx="132.114" cy="132.114" r="132.114" transform="matrix(1 0 0 -1 0.586914 264.99)" fill="#F1F701"/>
	<path d="M55.8455 159.585C53.8395 159.585 52.0844 159.141 50.5799 158.254C49.0755 157.367 47.8989 156.142 47.0503 154.58C46.2016 152.998 45.7773 151.176 45.7773 149.112C45.7773 147.048 46.2016 145.235 47.0503 143.673C47.8989 142.091 49.0755 140.857 50.5799 139.969C52.0844 139.082 53.8395 138.639 55.8455 138.639C57.8514 138.639 59.6066 139.082 61.111 139.969C62.6154 140.857 63.7823 142.091 64.6117 143.673C65.4604 145.235 65.8847 147.048 65.8847 149.112C65.8847 151.176 65.4604 152.998 64.6117 154.58C63.7823 156.142 62.6154 157.367 61.111 158.254C59.6066 159.141 57.8514 159.585 55.8455 159.585ZM55.8455 156.837C57.2342 156.837 58.4397 156.528 59.4619 155.911C60.5034 155.294 61.3135 154.406 61.8921 153.249C62.4708 152.092 62.7601 150.713 62.7601 149.112C62.7601 147.511 62.4708 146.132 61.8921 144.975C61.3135 143.817 60.5034 142.93 59.4619 142.313C58.4397 141.696 57.2342 141.387 55.8455 141.387C54.4567 141.387 53.2416 141.696 52.2001 142.313C51.1586 142.93 50.3485 143.817 49.7698 144.975C49.2105 146.132 48.9308 147.511 48.9308 149.112C48.9308 150.713 49.2105 152.092 49.7698 153.249C50.3485 154.406 51.1586 155.294 52.2001 155.911C53.2416 156.528 54.4567 156.837 55.8455 156.837Z" fill="#0D1218"/>
	<path d="M70.6573 159.238V138.986H73.724L83.879 154.233V138.986H86.9457V159.238H83.879L73.724 143.991V159.238H70.6573Z" fill="#0D1218"/>
	<path d="M91.1105 159.238L98.5748 138.986H101.931L109.337 159.238H106.097L104.361 154.291H96.0867L94.3508 159.238H91.1105ZM96.9546 151.86H103.493L100.224 142.631L96.9546 151.86Z" fill="#0D1218"/>
	<path d="M154.045 145.771C154.045 135.95 152.34 126.538 148.93 117.535C145.52 108.532 140.609 100.62 134.198 93.7997C127.787 86.843 119.943 81.3184 110.668 77.2262C101.528 73.134 91.1615 71.0879 79.5668 71.0879C68.927 71.0879 58.7647 72.8612 49.0798 76.4078C39.5312 79.818 31.1422 84.7968 23.9126 91.3444C16.8194 97.7555 11.1585 105.667 6.92986 115.079C2.70123 124.355 0.586914 134.858 0.586914 146.589C0.586914 157.638 2.56482 167.801 6.52064 177.076C10.6129 186.216 16.1374 194.127 23.0941 200.811C30.0509 207.359 38.1672 212.474 47.4429 216.157C56.7186 219.704 66.5399 221.477 76.9069 221.477C87.4102 221.477 97.2998 219.636 106.576 215.953C115.988 212.27 124.172 207.018 131.129 200.198C138.222 193.377 143.815 185.329 147.907 176.053C151.999 166.778 154.045 156.684 154.045 145.771ZM128.674 145.976C128.674 154.569 127.582 163.163 125.4 171.757C123.354 180.35 120.216 188.125 115.988 195.082C111.759 201.903 106.439 207.495 100.028 211.86C93.7532 216.225 86.319 218.408 77.7253 218.408C69.1317 218.408 61.561 216.43 55.0135 212.474C48.6023 208.518 43.2142 203.267 38.8492 196.719C34.6206 190.172 31.415 182.601 29.2325 174.007C27.05 165.414 25.9587 156.479 25.9587 147.203C25.9587 138.337 26.9136 129.607 28.8233 121.013C30.8694 112.283 33.9385 104.508 38.0308 97.6873C42.2594 90.867 47.5793 85.3425 53.9904 81.1138C60.538 76.7488 68.245 74.5663 77.1115 74.5663C85.8416 74.5663 93.4122 76.7488 99.8233 81.1138C106.234 85.3425 111.554 90.9352 115.783 97.8919C120.148 104.712 123.354 112.351 125.4 120.808C127.582 129.266 128.674 137.655 128.674 145.976Z" fill="#0D1218"/>
</svg>
