<svg width="375" height="375" viewBox="0 0 375 375" fill="none" xmlns="http://www.w3.org/2000/svg">
	<g clip-path="url(#clip0_405_4400)">
	<circle cx="132.114" cy="132.114" r="132.114" transform="matrix(1 0 0 -1 110.771 319.717)" fill="#F1F701"/>
	<path d="M264.229 187.488C264.229 177.666 262.524 168.254 259.114 159.251C255.704 150.249 250.793 142.337 244.382 135.517C237.971 128.56 230.128 123.035 220.852 118.943C211.713 114.851 201.346 112.805 189.751 112.805C179.111 112.805 168.949 114.578 159.264 118.125C149.715 121.535 141.326 126.514 134.097 133.061C127.003 139.472 121.343 147.384 117.114 156.796C112.885 166.072 110.771 176.575 110.771 188.306C110.771 199.355 112.749 209.518 116.705 218.793C120.797 227.933 126.321 235.844 133.278 242.528C140.235 249.076 148.351 254.191 157.627 257.874C166.903 261.421 176.724 263.194 187.091 263.194C197.594 263.194 207.484 261.352 216.76 257.669C226.172 253.986 234.356 248.735 241.313 241.914C248.406 235.094 253.999 227.046 258.091 217.77C262.183 208.495 264.229 198.4 264.229 187.488ZM238.858 187.692C238.858 196.286 237.766 204.88 235.584 213.473C233.538 222.067 230.4 229.842 226.172 236.799C221.943 243.619 216.623 249.212 210.212 253.577C203.937 257.942 196.503 260.125 187.909 260.125C179.316 260.125 171.745 258.147 165.198 254.191C158.786 250.235 153.398 244.984 149.033 238.436C144.805 231.888 141.599 224.318 139.417 215.724C137.234 207.13 136.143 198.196 136.143 188.92C136.143 180.054 137.098 171.323 139.007 162.73C141.053 154 144.123 146.225 148.215 139.404C152.443 132.584 157.763 127.059 164.175 122.831C170.722 118.466 178.429 116.283 187.296 116.283C196.026 116.283 203.596 118.466 210.007 122.831C216.419 127.059 221.738 132.652 225.967 139.609C230.332 146.429 233.538 154.068 235.584 162.525C237.766 170.982 238.858 179.372 238.858 187.692Z" fill="#0D1218"/>
	</g>
	<defs>
	<clipPath id="clip0_405_4400">
		<rect width="375" height="375" fill="white"/>
	</clipPath>
	</defs>
</svg>
