<svg width="25" height="25" viewBox="0 0 25 25" fill="none" xmlns="http://www.w3.org/2000/svg">
	<path d="M8.24646 3.59206C6.81953 4.2168 5.56868 5.18382 4.60474 6.40744C3.64079 7.63107 2.9935 9.07354 2.72018 10.6071C2.44687 12.1406 2.55598 13.7179 3.03785 15.1992C3.51972 16.6805 4.35947 18.0201 5.48272 19.0993C6.60597 20.1786 7.97805 20.9642 9.47742 21.3865C10.9768 21.8088 12.5572 21.8548 14.0786 21.5204C15.6 21.1861 17.0154 20.4817 18.1996 19.4696C19.3837 18.4576 20.3 17.1691 20.8672 15.7183" stroke="#0D1218" stroke-width="2"/>
	<path d="M21.5176 12.2435C21.5146 10.9996 21.2667 9.76844 20.7879 8.62037C20.3091 7.4723 19.6089 6.42977 18.7272 5.55232C17.8455 4.67486 16.7996 3.97966 15.6493 3.5064C14.4989 3.03314 13.2666 2.7911 12.0227 2.79408L12.0455 12.2662L21.5176 12.2435Z" stroke="#0D1218" stroke-width="2"/>
</svg>